<?xml version="1.0" encoding="UTF-8" standalone="no"?>

<!-- ####################################################################

This file was generates automatically via the 
IconPacks.Browser (MIT-License). 

Visit https://github.com/MahApps/MahApps.Metro.IconPacks and 
https://github.com/MahApps/MahApps.Metro.IconPacks/blob/develop/LICENSE 
for more information.
 
~~~~~~~~~~~~~~~~~~~~~~~~~~~~~~~~~~~~~~~~~~~~~~~~~~~~~~~~~~~~~~~~~~~~~~~~~~
 
Icon-Name: 			FootPrint
Iconpack:			Material
Iconpack-Homepage: 	https://pictogrammers.com/library/mdi/
Iconpack-License:	https://github.com/Templarian/MaterialDesign?tab=License-1-ov-file#readme

#####################################################################-->


<svg xmlns="http://www.w3.org/2000/svg"
     width="48"
     height="48">
    <path d="M16 2A2 2 0 1 1 14 4A2 2 0 0 1 16 2M12.04 3A1.5 1.5 0 1 1 10.54 4.5A1.5 1.5 0 0 1 12.04 3M9.09 4.5A1 1 0 1 1 8.09 5.5A1 1 0 0 1 9.09 4.5M7.04 6A1 1 0 1 1 6.04 7A1 1 0 0 1 7.04 6M14.53 12A2.5 2.5 0 0 0 17 9.24A2.6 2.6 0 0 0 14.39 7H11.91A6 6 0 0 0 6.12 11.4A2 2 0 0 0 6.23 12.8A6.8 6.8 0 0 1 6.91 15.76A6.89 6.89 0 0 1 6.22 18.55A1.92 1.92 0 0 0 6.3 20.31A3.62 3.62 0 0 0 10.19 21.91A3.5 3.5 0 0 0 12.36 16.63A2.82 2.82 0 0 1 11.91 15S11.68 12 14.53 12Z"
          style="fill:#000000;
                 stroke:none
                 stroke-width:0;
                 stroke-linecap:flat;
                 stroke-linejoin:miter;"
          transform="matrix(2.399363190864546,0,0,2.399363190864546,-4.8404164429702,-4.798726381729092)" />
</svg>