<?xml version="1.0" encoding="UTF-8" standalone="no"?>

<!-- ####################################################################

This file was generates automatically via the 
IconPacks.Browser (MIT-License). 

Visit https://github.com/MahApps/MahApps.Metro.IconPacks and 
https://github.com/MahApps/MahApps.Metro.IconPacks/blob/develop/LICENSE 
for more information.
 
~~~~~~~~~~~~~~~~~~~~~~~~~~~~~~~~~~~~~~~~~~~~~~~~~~~~~~~~~~~~~~~~~~~~~~~~~~
 
Icon-Name: 			WeightLifter
Iconpack:			Material
Iconpack-Homepage: 	https://pictogrammers.com/library/mdi/
Iconpack-License:	https://github.com/Templarian/MaterialDesign?tab=License-1-ov-file#readme

#####################################################################-->


<svg xmlns="http://www.w3.org/2000/svg"
     width="48"
     height="48">
    <path d="M12 5C10.89 5 10 5.89 10 7S10.89 9 12 9 14 8.11 14 7 13.11 5 12 5M22 1V6H20V4H4V6H2V1H4V3H20V1H22M15 11.26V23H13V18H11V23H9V11.26C6.93 10.17 5.5 8 5.5 5.5L5.5 5H7.5L7.5 5.5C7.5 8 9.5 10 12 10S16.5 8 16.5 5.5L16.5 5H18.5L18.5 5.5C18.5 8 17.07 10.17 15 11.26Z"
          style="fill:#FFFFFF;
                 stroke:none
                 stroke-width:0;
                 stroke-linecap:flat;
                 stroke-linejoin:miter;"
          transform="matrix(2.1818181818181817,0,0,2.1818181818181817,-2.1818181818181817,-2.1818181818181817)" />
</svg>